<?xml version="1.0" standalone="no"?><!DOCTYPE svg PUBLIC "-//W3C//DTD SVG 1.1//EN" "http://www.w3.org/Graphics/SVG/1.1/DTD/svg11.dtd"><svg t="1501826348551" class="icon" style="" viewBox="0 0 1024 1024" version="1.1" xmlns="http://www.w3.org/2000/svg" p-id="3424" xmlns:xlink="http://www.w3.org/1999/xlink" width="200" height="200"><defs><style type="text/css"></style></defs><path d="M447.207 529.975s-1.853-66.181 6.481-77.289c8.33-11.106 17.124-19.673 28.925-22.908 0 0 79.602-15.274 112.695-12.957 0 0 69.884 0.234 95.571 3.936 0 0 34.714 2.082 49.983 15.965 0 0 9.255 7.638 7.406 51.831 0 0 1.619 30.546 0 56.231l-17.354 49.291-24.065-1.853-17.586 10.182-18.281 1.853s-109.686-3.702-113.619-1.853-69.188 1.853-69.188 1.853-31.698-0.461-39.337-48.825l-26.844-1.39c0.234-0.234 3.702-11.804 25.225-24.065zM240.561 565.15c-31.006 0-56.231 25.453-56.231 56.927 0 12.265 3.936 23.604 10.412 33.091-0.925 1.619-4.626 3.471-18.051 2.544 0 0-8.33-4.167-6.013 10.182 2.315 14.58 20.133 13.422 21.985 12.035 0 0 8.099-2.082 16.197-10.874 9.027 6.249 19.901 9.95 31.698 9.95 31.006 0 56.231-25.453 56.231-56.927 0-31.471-25.225-56.927-56.231-56.927z" fill="#FFFFFF" p-id="3425"></path><path d="M294.481 628.784c-0.461 33.091 26.148 60.164 59.472 60.627 12.957 0.234 25.225-3.702 35.173-10.645 1.619 0.925 3.702 4.859 2.315 19.205 0 0-4.626 8.562 10.874 6.481 15.504-2.315 14.58-21.058 13.19-23.141 0 0-2.082-8.562-11.338-17.354 6.711-9.488 10.874-21.058 11.106-33.554 0.461-33.091-26.148-60.164-59.472-60.627-33.322-0.234-60.859 25.919-61.323 59.007z" fill="#FFFFFF" p-id="3426"></path><path d="M22.578 231.925c0-9.95 2.778-17.82 8.562-24.065s13.422-9.255 22.908-9.255c9.027 0 16.197 3.008 21.753 9.027s8.33 13.652 8.33 23.141c0 9.723-2.778 17.82-8.562 23.833s-13.19 9.255-22.448 9.255c-9.027 0-16.431-3.008-21.985-8.791s-8.562-13.883-8.562-23.141zM36.693 231.231c0 6.013 1.39 11.106 4.398 15.040s6.943 5.787 12.265 5.787 9.255-1.853 12.265-5.553 4.398-8.791 4.398-15.040c0-6.481-1.39-11.804-4.167-15.504s-6.943-5.787-12.035-5.787c-5.322 0-9.488 1.853-12.496 5.787s-4.626 9.027-4.626 15.274zM90.61 240.257c0-7.406 2.315-13.19 6.711-17.354s10.412-6.249 17.82-6.249c7.172 0 12.957 2.082 17.354 6.249s6.481 9.723 6.481 16.895c0 7.406-2.082 13.19-6.481 17.586s-10.182 6.481-17.82 6.481c-7.406 0-13.19-2.082-17.354-6.249s-6.711-10.182-6.711-17.354zM104.035 240.022c0 9.027 3.702 13.422 10.874 13.422 6.943 0 10.645-4.626 10.645-13.883 0-8.791-3.471-13.19-10.645-13.19-3.471 0-6.013 1.157-8.099 3.471s-2.778 6.013-2.778 10.182zM145.453 240.257c0-7.406 2.315-13.19 6.711-17.354s10.412-6.249 17.82-6.249c7.172 0 12.957 2.082 17.354 6.249s6.481 9.723 6.481 16.895c0 7.406-2.082 13.19-6.481 17.586s-10.182 6.481-17.82 6.481c-7.406 0-13.19-2.082-17.354-6.249s-6.711-10.182-6.711-17.354zM158.644 240.022c0 9.027 3.702 13.422 10.874 13.422 6.943 0 10.645-4.626 10.645-13.883 0-8.791-3.471-13.19-10.645-13.19-3.471 0-6.013 1.157-8.099 3.471s-2.778 6.013-2.778 10.182zM200.298 240.257c0-7.406 2.315-13.19 6.711-17.354s10.412-6.249 17.82-6.249c7.172 0 12.957 2.082 17.354 6.249s6.481 9.723 6.481 16.895c0 7.406-2.082 13.19-6.481 17.586s-10.182 6.481-17.82 6.481c-7.406 0-13.19-2.082-17.354-6.249s-6.711-10.182-6.711-17.354zM213.488 240.022c0 9.027 3.702 13.422 10.874 13.422 6.943 0 10.645-4.626 10.645-13.883 0-8.791-3.471-13.19-10.645-13.19-3.471 0-6.013 1.157-8.099 3.471s-2.778 6.013-2.778 10.182zM254.911 240.257c0-7.406 2.315-13.19 6.711-17.354s10.412-6.249 17.82-6.249c7.172 0 12.957 2.082 17.354 6.249s6.481 9.723 6.481 16.895c0 7.406-2.082 13.19-6.481 17.586s-10.182 6.481-17.82 6.481c-7.406 0-13.19-2.082-17.354-6.249s-6.711-10.182-6.711-17.354zM268.329 240.022c0 9.027 3.702 13.422 10.874 13.422 6.943 0 10.645-4.626 10.645-13.883 0-8.791-3.471-13.19-10.645-13.19-3.471 0-6.013 1.157-8.099 3.471s-2.778 6.013-2.778 10.182zM325.488 257.149v26.148h-13.19v-65.719h13.19v6.943h0.234c3.471-5.322 8.33-7.868 14.58-7.868 5.787 0 10.182 2.082 13.422 6.013s4.859 9.488 4.859 16.431c0 7.406-1.853 13.422-5.553 18.051s-8.562 6.711-14.809 6.711c-5.553-0.234-9.723-2.315-12.726-6.711zM325.257 242.571c0 3.239 0.925 5.787 2.544 7.868s3.936 3.008 6.711 3.008c3.239 0 5.787-1.39 7.638-3.936s2.778-6.249 2.778-10.874c0-8.33-3.239-12.265-9.723-12.265-3.008 0-5.322 1.157-7.406 3.471s-2.778 5.322-2.778 8.791v3.936zM366.675 250.439c4.398 2.778 8.791 4.167 13.19 4.167 5.322 0 8.099-1.39 8.099-4.398 0-2.082-2.315-3.702-6.711-5.091-5.553-1.853-9.488-3.702-11.572-5.787s-3.239-5.091-3.239-8.562c0-4.398 1.853-7.868 5.322-10.412s8.33-3.702 14.119-3.702c4.167 0 8.099 0.693 12.035 1.853v10.412c-3.471-2.082-7.406-3.008-11.572-3.008-2.082 0-3.702 0.461-5.091 1.157s-1.853 1.619-1.853 3.008c0 2.082 1.853 3.702 5.787 5.091 4.167 1.39 7.172 2.544 9.255 3.702s3.702 2.544 4.626 4.398 1.619 3.936 1.619 6.249c0 4.626-1.853 8.33-5.553 10.874s-8.791 3.936-14.809 3.936c-4.859 0-9.488-0.693-13.652-2.315v-11.572zM409.717 256.455c0-2.082 0.693-3.702 2.315-5.091s3.239-1.853 5.553-1.853c2.082 0 3.936 0.693 5.553 2.082s2.082 3.008 2.082 5.091c0 1.853-0.693 3.702-2.082 4.859s-3.008 2.082-5.091 2.082c-2.544 0-4.398-0.693-6.013-2.082s-2.315-3.008-2.315-5.091zM424.295 199.53l-1.619 43.503h-10.645l-1.619-43.503h13.883zM468.729 229.149h11.338v2.082c0 6.481-0.693 12.035-2.082 16.431 13.652 5.553 25.453 10.874 35.637 15.965l-6.249 9.95c-9.95-5.553-21.058-11.338-33.554-17.124-5.787 8.33-16.66 13.883-32.629 17.124-2.082-3.936-4.859-7.868-7.868-12.035 13.652-1.39 22.908-4.167 27.769-8.791s7.406-11.572 7.406-21.753v-1.853zM442.116 253.216v-38.18h20.133c1.39-3.008 2.315-6.013 3.239-8.791h-30.778v-9.723h77.519v9.723h-33.554c-1.39 3.008-2.778 6.013-4.167 8.791h30.778v37.721h-11.338v-28h-40.96v28.464h-10.874zM517.787 197.449h78.448v9.027h-34.714c-1.39 3.008-2.544 5.787-3.702 8.099h34.016v58.545h-10.412v-4.167h-49.061v4.167h-10.412v-58.545h22.908c0.925-2.544 2.082-5.322 3.008-8.099h-30.084v-9.027zM532.594 260.157h7.172v-36.331h-7.172v36.331zM549.95 230.305h13.652v-6.481h-13.652v6.481zM549.95 245.116h13.652v-6.481h-13.652v6.481zM549.95 260.157h13.652v-6.943h-13.652v6.943zM581.422 223.596h-7.638v36.56h7.638v-36.56zM601.090 208.323h10.874v-14.809h11.572v14.809h9.255v7.172l9.255-0.925-1.157-21.753h11.804c0 5.091 0.234 12.035 0.925 20.594l25.453-2.315 0.925 10.182-25.686 2.315c0.461 5.787 0.925 10.874 1.39 15.040 5.322-4.398 9.95-9.255 13.883-14.348l8.791 6.943c-5.787 7.406-12.496 14.119-20.133 20.133 1.157 3.471 2.544 6.013 3.936 7.406s2.778 2.315 3.936 2.315c0.461 0 0.925-0.234 1.39-0.461s0.925-1.619 1.39-3.702 1.157-5.553 1.853-10.645c3.936 2.544 7.172 4.398 9.95 5.553-1.39 7.868-3.008 13.19-5.091 16.431s-4.859 4.859-8.791 4.859c-8.562 0-14.58-5.091-18.511-15.040-4.859 3.008-9.95 5.787-15.274 8.33-1.619-2.778-3.702-6.013-6.481-9.95 6.711-3.008 12.957-6.249 18.742-9.95-1.157-5.787-1.853-13.19-2.544-21.753l-12.035 1.157-0.693-7.172h-6.481v13.19l10.874-1.157c-0.461 4.398-0.461 7.868-0.461 10.645l-10.412 1.157v20.366c0 3.008-0.693 5.091-1.853 6.711s-3.471 2.544-6.481 2.778-6.943 0.234-11.804 0.234c-0.693-3.471-1.619-7.172-3.008-10.645 2.544 0.234 4.626 0.461 6.711 0.461 2.082 0 3.239-0.234 3.936-0.925s0.925-1.619 0.925-3.008v-14.348l-10.874 1.619-1.39-11.572 12.265-1.157v-14.348h-10.874v-10.412zM663.34 193.977c4.167 3.239 8.562 6.711 12.957 10.645-3.239 3.008-5.787 5.553-7.638 7.406-3.702-3.936-7.638-7.638-12.265-11.338l6.943-6.711zM686.479 198.371h74.745v11.106h-28.925c-1.853 4.626-3.936 8.791-6.481 13.19h3.936v9.488l8.099-7.638c7.406 6.481 16.197 14.58 26.61 24.065l-9.488 9.255c-6.943-8.099-15.274-16.431-25.225-25.453v41.191h-12.265v-38.878c-6.943 8.791-15.735 16.66-26.148 23.833-1.853-2.544-4.398-6.013-8.33-10.645 17.124-11.106 28.925-24.065 35.403-38.414h-32.167v-11.106zM769.325 240.022h15.504v-8.099h10.874v8.099h14.348v9.95h-14.348v8.33l16.66-1.157-0.693 10.645c-16.66 1.157-31.239 2.082-44.196 3.239l-0.925-11.106 18.051-0.925v-9.027h-15.504v-9.95zM767.471 197.677h44.893v9.95h-20.366c-3.239 4.626-6.481 9.027-9.95 13.19 2.315 0 7.406-0.234 15.504-0.461-1.619-2.544-3.008-4.626-4.167-6.481l8.33-4.626c3.702 5.091 7.868 11.338 12.496 18.742l-8.791 5.787-2.544-4.398-15.504 0.693c-7.172 0.461-11.338 0.693-12.496 0.693s-2.778 0.461-4.626 0.925l-3.471-9.255c3.008-1.619 7.172-6.481 12.265-14.58h-12.035v-10.182zM815.373 202.074h10.874v52.066h-10.874v-52.066zM832.033 193.977h11.106v66.412c0 3.936-0.925 7.172-2.544 9.255s-4.398 3.239-8.562 3.471-8.099 0.234-12.265 0.234c-0.461-2.315-1.39-6.249-2.778-11.572 4.626 0 8.099 0.234 10.645 0.234 2.778 0 4.398-1.619 4.398-4.626v-63.404zM885.719 224.986c6.481-4.398 14.119-9.95 22.677-16.197h-55.537v-11.338h74.512v11.338l-28.695 21.287v26.381c0 5.091-1.39 9.027-3.936 11.572s-6.481 3.702-11.804 3.936h-14.809c-0.693-3.936-1.853-8.099-3.008-12.496 5.091 0.461 9.488 0.693 12.957 0.693 3.239 0 5.322-0.693 6.249-2.082s1.39-3.008 1.39-5.091v-28zM973.424 249.978c2.082 0 3.936 0.693 5.322 2.082s2.082 3.008 2.082 4.859-0.693 3.471-2.082 4.859-3.239 2.082-5.322 2.082-3.702-0.693-5.322-2.082-2.082-3.008-2.082-4.859 0.693-3.471 2.082-4.859 3.239-2.082 5.322-2.082zM979.902 199.53l-1.619 43.738h-10.182l-1.39-43.738h13.19z" fill="#0CAEE7" p-id="3427"></path><path d="M260.23 916.885c-52.53 0-95.11-7.406-95.11-16.66s42.58-16.66 95.11-16.66z" fill="#E4E2E2" p-id="3428"></path><path d="M280.133 913.414c-50.677 0-91.636-6.013-91.636-13.422s41.191-13.422 91.636-13.422z" fill="#908788" p-id="3429"></path><path d="M346.083 823.166s39.803-8.791 47.902 29.85-34.714 40.494-34.714 40.494-79.833-4.167-13.19-70.349z" fill="#EF5D5E" p-id="3430"></path><path d="M258.379 694.274v-15.735h-6.481v17.354c1.853-0.693 4.167-1.157 6.481-1.619zM328.729 712.555l15.965-24.299-11.338-2.778-10.412 22.677zM367.371 893.052c-1.853 0-3.471 0-5.322 0.234h-2.082c2.544 0 4.859-0.234 7.406-0.234zM187.105 777.347v0z" fill="#FCE1D6" p-id="3431"></path><path d="M354.182 893.281v0z" fill="#62463A" p-id="3432"></path><path d="M261.39 906.703h0.693c-0.234 0.234-0.461 0-0.693 0zM274.117 907.858c20.133 1.157 54.379 1.39 80.531-4.167-26.148 5.322-60.399 5.322-80.531 4.167zM260 906.703v0zM271.57 907.632c0.693 0 1.157 0 1.853 0.234-0.461 0-1.157-0.234-1.853-0.234zM258.846 906.471v0zM263.007 906.937v0zM228.761 708.62c-0.234 0-0.234 0.234-0.461 0.234 0-0.234 0.234-0.234 0.461-0.234zM249.819 698.438c-11.106 3.471-18.511 8.33-21.058 9.95 2.544-1.619 9.95-6.481 21.058-9.95zM228.068 708.851s0 0.234 0 0c0 0.234 0 0 0 0zM188.497 770.406c-0.461 2.315-0.925 4.398-1.39 6.711v0.234c0 0.461-0.234 0.693-0.234 1.157 0-0.461 0.234-0.693 0.234-1.157v-0.234c0.461-2.082 0.925-4.398 1.39-6.711z" fill="#FACBBB" p-id="3433"></path><path d="M285.223 550.108l-4.398-1.619c-0.234 0.461-3.702 9.027-21.058 6.249l-0.693 4.626c2.544 0.461 4.859 0.693 6.943 0.693 15.274-0.234 18.975-9.488 19.205-9.95zM331.27 564.917c0.925 0 1.853 0 2.778-0.234l-0.461-4.626c-5.091 0.461-9.255-0.693-11.804-3.471-6.249-6.481-4.167-19.901-4.167-20.133l-4.626-0.693c0 0.693-2.544 15.735 5.322 24.065 3.239 3.239 7.638 5.091 12.957 5.091z" fill="#080808" p-id="3434"></path><path d="M337.521 886.341c0.925 0.925 2.082 1.619 3.239 2.082s2.082 0.693 3.008 0.925c-2.082-0.693-4.167-1.619-6.249-3.008zM336.131 868.291c1.619-2.082 3.239-3.936 3.471-4.398 3.702-4.626 7.638-9.255 12.957-11.338 6.013-2.315 11.572-1.619 15.040 1.619 3.702 3.471 7.172 11.338 4.398 15.504-2.082 2.778-5.553 4.859-8.562 5.091-2.315 0-3.936-0.693-5.322-2.315-1.619-2.082-2.544-5.091-1.853-7.406 0-0.234 0.234-0.693 0.234-0.925-0.234 0.461-0.234 0.693-0.461 1.157-0.693 2.544 0.234 6.249 2.315 8.562 1.619 1.853 3.702 3.008 6.249 2.778 3.702-0.234 7.638-2.544 9.95-5.787 3.471-4.859-0.693-14.119-4.859-18.051-3.936-3.936-10.645-4.626-17.586-1.853-6.249 2.315-10.645 7.868-15.040 12.957-0.461 0.693-2.315 2.544-3.702 4.167-0.925 1.157-2.082 2.315-2.315 2.544l-0.693 0.693c0 1.157 0.234 2.315 0.461 3.239 0.461 0 3.008-3.239 5.322-6.249z" fill="#D85960" p-id="3435"></path><path d="M388.66 878.703c5.091-6.481 6.481-15.274 4.398-25.686-2.315-10.874-7.406-18.742-15.040-23.833-12.726-8.33-28.925-5.787-31.239-5.322l-0.925 0.925c6.481-0.925 36.793-4.167 43.738 28 7.638 35.868-32.397 37.721-32.397 37.721s-4.167 0.461-9.027-0.693c0.693 0.234 1.619 0.234 2.315 0.461 3.702 0.234 7.868 0.234 11.804 0 2.082 0 4.167-0.234 6.249-0.234 6.013-0.925 14.58-4.398 20.133-11.338z" fill="#D85960" p-id="3436"></path><path d="M362.050 893.052h-2.082c2.544 0 4.859-0.234 7.406-0.234-1.853 0.234-3.702 0.234-5.322 0.234zM343.769 889.349c-0.925-0.234-2.082-0.693-3.008-0.925 2.778 1.39 6.013 2.082 9.488 2.544-0.693-0.234-1.619-0.234-2.315-0.461-1.39-0.461-2.778-0.693-4.167-1.157zM345.619 825.022l0.925-0.925c2.544-0.461 18.511-3.008 31.239 5.322 7.638 5.091 12.726 12.957 15.040 23.833 2.082 10.412 0.693 18.975-4.398 25.686-5.322 6.943-13.883 10.412-20.366 12.035h0.693c2.082 0 4.167 0 6.249 0.234 5.322-2.082 11.106-5.553 15.274-10.874 5.553-7.172 7.172-16.431 4.859-27.535-2.315-11.338-7.868-19.901-15.965-25.225-13.422-8.562-29.62-6.249-32.859-5.553-0.461 1.157-0.693 2.315-1.157 3.702 0.234-0.461 0.461-0.461 0.461-0.693zM358.811 893.281v0z" fill="#6D271B" p-id="3437"></path><path d="M356.494 866.673l3.702-1.619-0.234-0.693-3.936 1.619 0.461 1.157c0.234 0.461 0.461 0.693 0.693 1.157 0-0.234-0.234-0.461-0.234-0.693l-0.461-0.925z" fill="#D85960" p-id="3438"></path><path d="M362.281 867.364c1.157 0 2.778-1.853 3.239-3.471 0.234-1.157 0-1.39-0.461-1.619-1.157-0.925-4.167-0.925-6.249-0.234-0.925 0.234-1.39 0.693-2.082 1.39 0.461-0.461 0.925-0.925 1.619-1.157 1.619-0.693 4.398-0.693 5.322 0 0.234 0.234 0.461 0.461 0.234 1.39-0.234 1.39-1.619 2.778-2.544 3.008 0.234 0.461 0.693 0.693 0.925 0.693z" fill="#D85960" p-id="3439"></path><path d="M333.353 868.291c1.619-1.619 3.239-3.702 3.702-4.167 4.398-5.322 8.791-10.645 15.040-12.957 6.943-2.778 13.422-2.082 17.586 1.853 4.167 3.936 8.33 13.19 4.859 18.051-2.315 3.471-6.481 5.787-9.95 5.787-2.544 0-4.626-0.925-6.249-2.778-2.082-2.315-3.008-6.013-2.315-8.562 0-0.461 0.234-0.925 0.461-1.157 0.234-0.234 0.461-0.693 0.461-0.925 0.461-0.693 1.157-1.157 2.082-1.39 2.082-0.925 5.091-0.693 6.249 0.234 0.234 0.234 0.693 0.693 0.461 1.619-0.234 1.853-2.082 3.471-3.239 3.471-0.234 0-0.693-0.234-0.925-0.693 0-0.234-0.234-0.234-0.234-0.461l-0.461-1.157-0.234 0.234-3.702 1.619 0.461 1.157c0 0.234 0.234 0.461 0.234 0.693 1.157 2.315 3.239 3.702 5.553 3.471 3.239-0.234 6.249-3.471 6.943-7.172 0.693-3.239-0.925-5.091-1.853-6.013-3.008-2.544-8.099-1.853-10.645-0.925-3.008 1.157-4.859 3.471-5.553 6.481-0.925 3.936 0.234 9.027 3.239 12.496 2.315 3.008 5.553 4.398 9.488 4.398h0.461c5.091-0.234 10.412-3.239 13.422-7.638 5.091-7.172 0-18.511-5.553-23.833-5.322-5.091-13.652-6.249-22.218-2.778-7.172 2.778-12.035 8.791-16.895 14.348-0.234 0.461-1.39 1.619-2.315 2.778-0.693 2.544-0.925 5.091-0.925 7.868l0.693-0.693c-0.234-0.925 0.925-2.082 1.853-3.239z" fill="#6D271B" p-id="3440"></path><path d="M379.868 895.362c-1.853 1.39-6.711 3.239-16.197 6.013-3.008 0.693-6.013 1.619-9.255 2.315 33.785-9.027 8.791-10.182 4.859-10.182h-5.322c-12.035 0.461-24.991 1.619-31.934-10.874-6.711-12.035 0.925-24.065 5.091-35.173 3.471-9.027 6.711-18.281 9.255-27.769 9.027-33.322 13.422-77.983-17.354-102.049-25.686-20.133-49.983-22.218-68.033-19.205-13.883 3.936-22.677 10.412-23.372 10.874-6.013 5.091-11.338 10.645-16.197 16.66 0.693 0 1.39 0.234 2.082 0.461 1.619-3.471 11.338-5.322 15.735-6.013l0.461 2.315c-6.711 0.925-12.726 3.008-13.883 4.398 2.778 0.925 5.091 2.315 7.172 3.936 0.461 0.234 1.157 0.234 1.853 0.461l-0.234 0.925c3.936 3.471 6.013 7.172 6.013 7.406l-2.082 1.157c-0.234-0.693-7.868-15.040-24.065-12.265 3.239 2.778 8.791 9.255 6.711 18.051v0.234l-0.234 0.234c-0.925 0.925-2.778 3.471-2.315 5.553 0.234 1.157 1.39 2.315 3.239 3.008 8.791 3.702 7.172 12.035 7.172 12.035l-2.315-0.461c0-0.234 1.157-6.481-5.787-9.488-2.544-1.157-4.167-2.778-4.626-4.626-0.693-3.239 1.853-6.481 2.778-7.406 1.157-5.091-0.925-9.255-3.008-12.265-6.013 8.33-10.874 17.354-14.348 26.61-1.157 2.778-2.082 5.787-2.778 8.562v0.461c-0.693 2.778-1.39 5.787-1.853 8.562v0.234c-1.619 9.488-1.853 18.281-1.853 26.381 0.234 24.065 2.778 51.607 19.901 72.662 12.265 15.040 29.388 24.761 52.759 30.084 8.33 1.853 70.116 5.787 106.447-5.091 15.040-4.398 16.431-6.481 16.66-6.943-0.234-0.234-1.157-0.693-2.544-0.925 0.925 0 1.619 0.461 1.39 1.157z" fill="#FCE1D6" p-id="3441"></path><path d="M328.729 712.555l-5.553-4.398 9.723-21.753c-0.693-0.234-1.39-0.693-2.082-0.925l-9.723 21.753c-22.677-14.58-43.738-16.197-60.399-13.422l0.925-16.431v-0.693c-1.853 0.693-3.471 1.157-5.322 1.853h2.315v15.735c-2.315 0.461-4.398 0.925-6.481 1.619v-16.431c-0.693 0.234-1.619 0.234-2.315 0.461v16.66c-14.119 4.167-22.677 10.645-22.908 10.874-6.481 5.553-12.265 11.804-17.586 18.051-2.315 0-4.626 0.234-7.172 0.925l-2.544 0.693 2.082 1.39s1.39 0.925 3.239 2.778c-6.249 8.791-11.338 18.051-14.809 27.535-6.013 16.197-6.711 31.934-6.711 44.893 0.234 24.529 2.778 52.53 20.366 74.050 12.265 15.040 30.546 25.453 53.917 30.778 3.936 0.925 20.366 2.315 40.494 2.315 21.753 0 48.133-1.619 67.107-7.406 16.431-4.859 18.511-7.406 18.281-9.488-0.234-2.082-3.936-3.008-8.099-3.471-2.082-0.234-4.167-0.234-6.249-0.234h-0.693c-2.082 0-4.167 0-6.249 0.234-3.936 0.234-7.868 0.461-11.804 0-3.471-0.234-6.481-0.925-9.488-2.544-1.157-0.461-2.082-1.157-3.239-2.082-1.853-1.39-3.239-3.239-4.626-5.553-0.925-1.853-1.619-3.702-2.082-5.553-0.234-1.157-0.461-2.315-0.461-3.239 0-2.544 0.234-5.091 0.925-7.868 1.157-4.167 2.778-8.33 4.626-12.265 0.925-1.853 1.619-3.702 2.315-5.787 2.778-6.943 5.091-13.652 7.172-20.594 0.461-1.157 0.693-2.315 1.157-3.702 0.461-1.39 0.693-2.778 1.157-3.936 9.027-33.785 13.422-78.911-17.124-103.669l15.965-24.065c-0.925 0-1.619-0.234-2.544-0.461l-15.504 23.372zM249.819 698.438c-11.106 3.471-18.511 8.33-21.058 9.95 2.315-1.619 9.95-6.481 21.058-9.95zM346.083 738.242c0.234 0.693 0.693 1.39 0.925 2.082 2.315 5.787 3.702 12.035 4.626 18.281 0.693 4.626 0.925 9.488 0.925 14.348v3.471c0 2.544-0.234 4.859-0.461 7.406l-0.693 6.249v0.925c-1.157 9.027-3.239 18.051-5.322 26.148-2.544 9.488-5.553 18.742-9.255 27.769-0.925 2.082-1.853 4.167-2.544 6.249-1.853 4.398-3.702 8.791-4.626 13.19-1.157 5.091-0.925 10.412 2.082 15.735 6.249 11.338 17.586 13.19 28.695 13.19h2.082c1.853 0 3.471-0.234 5.322-0.234h0.693s2.778-0.234 5.553-0.234c1.853 0.234 3.471 0.461 4.859 0.925 1.39 0.234 2.315 0.461 2.544 0.925 0 0.461-1.39 2.544-16.66 6.943-36.331 10.874-98.116 6.943-106.447 5.091-23.372-5.322-40.494-15.040-52.759-30.084-17.124-20.829-19.673-48.364-19.901-72.662 0-8.099 0.234-16.895 1.853-26.381 0 0.461-0.234 0.693-0.234 1.157 0-0.461 0.234-0.693 0.234-1.157v-0.234c0.461-2.315 0.925-4.398 1.39-6.711-0.461 2.315-0.925 4.398-1.39 6.711 0.461-2.778 1.157-5.553 1.853-8.562v-0.461c0.693-2.778 1.619-5.787 2.778-8.562 3.471-9.255 8.33-18.051 14.348-26.61 2.315 3.008 4.167 7.172 3.008 12.265-0.925 0.925-3.471 4.167-2.778 7.406 0.461 2.082 1.853 3.702 4.626 4.626 7.172 3.008 6.013 9.255 5.787 9.488l2.315 0.461s1.619-8.33-7.172-12.035c-1.853-0.693-3.008-1.853-3.239-3.008-0.461-2.082 1.619-4.859 2.315-5.553l0.234-0.234v-0.234c2.082-8.791-3.471-15.274-6.711-18.051 16.197-2.778 23.833 11.572 24.065 12.265l2.082-1.157s-2.082-3.702-6.013-7.406l0.234-0.925c-0.693-0.234-1.157-0.234-1.853-0.461-2.082-1.619-4.398-3.008-7.172-3.936 1.157-1.39 7.172-3.239 13.883-4.398l-0.461-2.315c-4.398 0.693-14.119 2.544-15.735 6.013-0.693-0.234-1.39-0.234-2.082-0.461 4.859-5.787 10.182-11.338 16.197-16.66 0.461-0.461 9.255-6.711 23.372-10.874-0.461 0-0.925 0.234-1.39 0.234 1.157-0.234 2.315-0.693 3.471-0.925h0.234c1.853-0.461 3.471-0.925 5.322-1.157 0.461 0 0.925-0.234 1.39-0.234 0.693-0.234 1.619-0.234 2.315-0.461 0.461 0 1.157-0.234 1.619-0.234 0.461 0 0.925-0.234 1.39-0.234 0.925 0 1.853-0.234 2.544-0.234h9.488c1.157 0 2.082 0.234 3.239 0.234h0.925c1.157 0.234 2.315 0.234 3.471 0.461 0.234 0 0.693 0 0.925 0.234 1.157 0.234 2.544 0.461 3.702 0.693 0.234 0 0.461 0 0.693 0.234 1.157 0.234 2.544 0.461 3.702 0.925h0.461c1.39 0.461 2.778 0.693 4.167 1.157 0.234 0 0.461 0.234 0.693 0.234 1.39 0.461 2.778 0.925 4.167 1.619 0.234 0 0.461 0.234 0.693 0.234 1.39 0.461 2.778 1.157 4.167 1.853 0 0 0.234 0 0.234 0.234l4.167 2.082c0.234 0 0.461 0.234 0.461 0.234 1.39 0.693 2.778 1.619 4.398 2.544 0.234 0.234 0.461 0.234 0.925 0.461 1.39 0.925 2.778 1.853 4.398 2.778 0.234 0.234 0.461 0.234 0.693 0.461 1.619 1.157 3.008 2.082 4.626 3.471 7.868 6.711 13.652 14.58 17.354 23.372z" fill="#62463A" p-id="3442"></path><path d="M328.495 715.1c-1.619-1.157-3.008-2.315-4.626-3.471-0.234-0.234-0.461-0.234-0.693-0.461-1.39-0.925-2.778-1.853-4.398-2.778-0.234-0.234-0.461-0.234-0.925-0.461-1.39-0.925-2.778-1.619-4.398-2.544-0.234 0-0.461-0.234-0.461-0.234l-4.167-2.082s-0.234 0-0.234-0.234c-1.39-0.693-2.778-1.39-4.167-1.853-0.234 0-0.461-0.234-0.693-0.234-1.39-0.461-2.778-1.157-4.167-1.619-0.234 0-0.461-0.234-0.693-0.234-1.39-0.461-2.778-0.925-4.167-1.157h-0.461c-1.39-0.234-2.544-0.693-3.702-0.925-0.234 0-0.461 0-0.693-0.234-1.157-0.234-2.544-0.461-3.702-0.693-0.234 0-0.693 0-0.925-0.234-1.157-0.234-2.315-0.234-3.471-0.461h-0.925c-1.157 0-2.082-0.234-3.239-0.234h-9.488c-0.925 0-1.853 0.234-2.544 0.234l-12.265 2.315h-0.234c-1.157 0.234-2.315 0.693-3.471 0.925 0.461 0 0.925-0.234 1.39-0.234 18.281-3.239 42.348-0.925 68.033 19.205 30.778 24.065 26.148 68.496 17.354 102.049-2.544 9.488-5.553 18.742-9.255 27.769-4.398 11.106-11.804 23.141-5.091 35.173 6.943 12.496 19.901 11.338 31.934 10.874h5.322c3.936 0.234 28.925 1.39-4.859 10.182 3.239-0.693 6.249-1.619 9.255-2.315 9.488-2.778 14.119-4.626 16.197-6.013 0.234-0.693-0.461-1.157-1.39-1.619-1.157-0.461-3.008-0.693-4.859-0.925-3.008 0-5.553 0.234-5.553 0.234h-0.693c-2.315 0.234-4.859 0.234-7.406 0.234-11.106 0-22.218-1.619-28.695-13.19-3.008-5.322-3.008-10.645-2.082-15.735 0.925-4.398 2.778-8.791 4.626-13.19 0.925-2.082 1.853-4.167 2.544-6.249 3.471-9.027 6.711-18.281 9.255-27.769 2.315-8.099 4.167-17.124 5.322-26.148v-0.925l0.693-6.249c0.234-2.544 0.461-4.859 0.461-7.406v-3.471c0-4.859-0.234-9.723-0.925-14.348-0.925-6.249-2.315-12.496-4.626-18.281-0.234-0.693-0.693-1.39-0.925-2.082-3.239-8.562-9.027-16.431-17.124-22.908z" fill="#FACBBB" p-id="3443"></path><path d="M243.339 601.711c-12.726 0-23.141 10.412-23.141 23.141s10.412 23.141 23.141 23.141 23.141-10.412 23.141-23.141-10.412-23.141-23.141-23.141zM243.339 641.052c-8.791 0-16.197-7.172-16.197-16.197s7.172-16.197 16.197-16.197 16.197 7.172 16.197 16.197-7.406 16.197-16.197 16.197z" fill="#F25242" p-id="3444"></path><path d="M243.339 608.885c-8.791 0-16.197 7.172-16.197 16.197s7.172 16.197 16.197 16.197 16.197-7.172 16.197-16.197-7.406-16.197-16.197-16.197zM238.016 619.068c-0.461 0.461-1.157 0.234-1.619-0.234s0-1.157 0.461-1.39c0.461-0.461 1.157-0.234 1.619 0.234s0 0.925-0.461 1.39zM242.18 616.289c-1.157 0.693-2.544 0.693-3.239-0.234s-0.234-2.315 1.157-3.008 2.544-0.693 3.239 0.234c0.461 0.925 0 2.315-1.157 3.008z" fill="#070302" p-id="3445"></path><path d="M242.156 616.185c0 0 0 0 0 0 1.179-0.769 1.627-2.171 0.997-3.134-0.626-0.967-2.093-1.125-3.269-0.357 0 0 0 0 0 0 0 0 0 0 0 0-1.179 0.769-1.627 2.171-0.997 3.134 0.626 0.967 2.093 1.125 3.269 0.357s0 0 0 0z" fill="#F4F2F2" p-id="3446"></path><path d="M237.808 618.893c0 0 0 0 0 0 0.532-0.349 0.745-0.976 0.462-1.406-0.277-0.427-0.94-0.492-1.472-0.144 0 0 0 0 0 0-0.532 0.349-0.745 0.976-0.462 1.406 0.277 0.427 0.94 0.492 1.472 0.144z" fill="#F4F2F2" p-id="3447"></path><path d="M389.586 685.71c0-1.619-0.234-2.778-0.693-3.702l0.693 3.702z" fill="#FFFFFD" p-id="3448"></path><path d="M405.092 663.962c6.711-9.723 10.645-21.519 10.874-34.246 0.234-33.785-27.073-61.555-60.859-61.786-26.61-0.234-49.52 16.66-58.083 40.267-6.481-24.991-29.157-43.503-56.001-43.503-31.934 0-57.853 25.919-57.853 57.853 0 11.804 3.702 22.908 9.723 32.167-1.157 0.693-4.626 2.315-13.883 0.693-6.943-1.157-9.255 2.315-10.182 4.398-2.082 5.553 1.39 14.119 6.943 17.586 3.936 2.544 8.099 4.626 12.726 4.626 5.553 0 12.035-3.008 19.901-11.804 9.255 6.249 20.366 9.95 32.397 9.95 2.778 0 5.787-0.234 8.562-0.693 0.693 0 1.619-0.234 2.315-0.461 1.39-0.234 2.778-0.693 4.167-0.925 1.853-0.461 3.702-1.157 5.322-1.853 15.504-5.787 27.769-18.051 33.554-33.322 4.398 18.975 18.051 34.714 35.637 42.348 0.693 0.234 1.39 0.693 2.082 0.925 3.471 1.39 7.172 2.315 11.106 3.008 0.925 0.234 1.619 0.234 2.544 0.461 2.544 0.461 5.091 0.693 7.868 0.693 12.496 0 24.299-3.702 34.016-10.182 0.234 0.234 0.461 0.925 0.693 1.619 0.234 0.925 0.461 2.082 0.693 3.702 0.234 2.315 0 5.322-0.693 9.488-1.39 7.172 2.315 9.95 4.626 10.645 5.787 2.315 14.809-1.157 18.742-7.172 2.544-4.167 4.859-8.33 5.091-13.422 0.234-5.787-2.778-12.496-12.035-21.058zM293.554 625.545v3.008c0 3.471 0.234 6.711 0.693 9.95-6.943 22.677-28.231 39.337-53.225 39.337-12.265 0-23.604-3.936-32.629-10.645l-1.619 1.619c-13.422 14.809-21.753 11.572-29.62 6.481-4.859-3.008-7.868-10.412-6.013-14.809 0.925-2.544 3.239-3.239 5.322-3.239 0.693 0 1.39 0 2.082 0.234 9.488 1.619 13.652 0.234 15.504-0.925 0.925-0.461 1.39-0.925 1.619-2.082-0.234-0.234-0.693-1.157-0.925-1.39l-3.702-6.481c-1.157-2.315-2.082-4.626-2.778-7.172s-1.39-5.091-1.853-7.638c-0.234-1.853-0.461-3.471-0.693-5.322 0-0.925-0.234-1.853-0.234-2.544v-1.619c0-30.546 24.991-55.537 55.537-55.537 27.306 0 49.983 19.673 54.61 45.585-1.157 4.626-1.853 8.791-2.082 13.19zM410.185 697.284c-3.239 5.091-11.106 8.099-15.735 6.249-2.544-1.157-3.471-3.471-3.471-5.787 0-0.693 0-1.619 0.234-2.315 1.853-9.95 0.461-14.348-0.925-16.431-0.693-0.925-1.157-1.39-2.082-1.853l-8.33 5.091c-2.544 1.157-4.859 2.082-7.638 3.008-2.544 0.925-5.322 1.39-8.099 1.853l-5.553 0.693c-0.925 0-1.853 0.234-2.778 0.234h-1.853c-32.397-0.234-58.545-26.844-58.313-59.239s26.844-58.545 59.239-58.313c32.397 0.234 58.545 26.844 58.313 59.239 0 12.957-4.398 24.761-11.572 34.481l1.853 1.619c15.735 14.58 12.265 23.141 6.711 31.471z" fill="#473C40" p-id="3449"></path><path d="M357.422 602.404h-2.544c-12.496 1.157-22.218 11.572-22.218 24.299s9.488 23.141 21.753 24.529c0.693 0 1.619 0.234 2.544 0.234 13.652 0 24.529-10.874 24.761-24.299 0-13.652-10.874-24.761-24.299-24.761zM356.959 643.826c-9.488 0-16.895-7.868-16.895-17.124 0-9.488 7.868-16.895 17.124-16.895 9.488 0 16.895 7.868 16.895 17.124 0 9.488-7.638 17.124-17.124 16.895z" fill="#F25242" p-id="3450"></path><path d="M357.19 609.813c-9.488 0-17.124 7.406-17.124 16.895s7.406 17.124 16.895 17.124 17.124-7.406 17.124-16.895c0.234-9.488-7.406-17.124-16.895-17.124zM365.754 620.225c-1.157 0.461-2.315-0.234-3.008-1.619s-0.234-2.778 0.925-3.239c1.157-0.461 2.315 0.234 3.008 1.619 0.461 1.157 0 2.778-0.925 3.239zM368.299 623.229c-0.461 0.234-1.157 0-1.39-0.693s-0.234-1.39 0.461-1.619c0.461-0.234 1.157 0 1.39 0.693s0.234 1.39-0.461 1.619z" fill="#070302" p-id="3451"></path><path d="M362.706 618.48c0 0 0 0 0 0 0.627 1.399 1.985 2.148 3.040 1.68 1.047-0.477 1.392-1.985 0.761-3.385 0 0 0 0 0 0-0.627-1.399-1.985-2.148-3.040-1.68-1.047 0.477-1.392 1.985-0.761 3.385z" fill="#F4F2F2" p-id="3452"></path><path d="M368.441 623.301c0.463-0.208 0.588-0.946 0.274-1.644s-0.946-1.099-1.413-0.887c0 0 0 0 0 0-0.463 0.208-0.588 0.946-0.274 1.644 0.314 0.699 0.946 1.099 1.413 0.887 0 0 0 0 0 0z" fill="#F4F2F2" p-id="3453"></path><path d="M661.026 604.027l-2.315 0.461c0 0.234 2.315 8.562 10.182 9.255l0.234-2.315c-6.249-0.461-7.868-7.172-8.099-7.406zM654.778 609.118l-3.471 0.693c0.234 0.461 3.471 10.182 15.965 11.338l0.461-2.778c-10.182-0.925-12.957-9.027-12.957-9.255zM815.373 579.036c-9.027 7.406-17.354 5.787-17.586 5.553l-0.461 2.315c0.234 0 1.157 0.234 3.008 0.234 3.471 0 9.723-0.925 16.431-6.481l-1.39-1.619zM823.937 583.199c-6.481 11.106-15.965 13.422-16.197 13.422l0.461 2.315c0.234 0 1.39-0.234 3.471-1.157 3.702-1.619 9.95-5.553 14.58-13.652l-2.315-0.925z" fill="#5A3D1D" p-id="3454"></path><path d="M484 509.38c-5.787-1.157-11.804 0.693-15.965 6.481-2.778 3.702-3.008 7.868-4.859 12.035-2.082 4.859-6.249 8.791-6.943 14.119-0.461 3.702 0.461 7.406 2.315 11.106h2.544v1.157c0 1.39 0.234 2.544 0.234 3.936 0.925 1.157 1.619 2.315 2.544 3.239 2.082 2.544 7.868 9.488 11.572 8.791 5.787-1.157 4.859-9.95 12.957-7.868 4.859 1.39 8.33 6.249 13.652 6.013 6.943-0.461 13.422-5.787 17.82-10.412 4.859-4.859 10.645-12.265 8.099-19.673-0.693-2.315-2.315-4.167-4.167-6.013-0.234 0-0.461 0-0.693 0.234l-0.234-0.925M482.612 515.399z" fill="#C8EFF4" p-id="3455"></path><path d="M628.63 601.25l-141.853 1.619c-0.234 0-32.629-3.471-36.098-44.893 0-1.157-0.234-2.544-0.234-3.936v-1.157h-26.148c1.39-3.702 6.711-13.883 24.065-21.058l0.693-0.234v-0.693c0-10.182 0-20.594 0.234-31.239v-8.562c0-14.119-0.234-27.535 7.172-38.878 7.638-12.035 18.281-19.673 30.778-21.753 1.39-0.234 134.91-28.231 237.883 0h0.461c0.693-0.234 19.205-2.544 22.448 30.546 0 0.693 2.544 47.439-0.461 84.694 0.461 0.234 1.157 0.693 1.619 1.157 3.008-37.028 0.693-83.307 0.461-86.082-2.082-37.721-34.016-35.868-54.843-39.337-17.82-3.008-35.868-4.626-53.917-5.322-51.139-2.082-103.206 1.39-153.884 12.035-12.726 2.315-23.833 9.95-31.698 22.448-7.638 12.035-7.638 25.919-7.406 40.494v8.562c-0.234 10.412-0.234 20.594-0.234 30.546-21.753 9.255-24.991 23.372-24.991 23.833l-0.234 1.39h27.073c2.315 46.047 37.489 49.753 37.95 49.753l141.853-1.619c1.619 0.234 18.511 1.619 38.644 1.619h6.249c-0.693-0.693-1.157-1.619-1.853-2.315-23.372 0-43.271-1.619-43.738-1.619z" fill="#62482D" p-id="3456"></path><path d="M628.63 601.25l-141.853 1.619c-0.234 0-32.629-3.471-36.098-44.893 0-1.157-0.234-2.544-0.234-3.936v-1.157h-26.148c1.39-3.702 6.711-13.883 24.065-21.058l0.693-0.234v-0.693c0-10.182 0-20.594 0.234-31.239v-8.562c0-14.119-0.234-27.535 7.172-38.878 7.638-12.035 18.281-19.673 30.778-21.753 1.39-0.234 134.91-28.231 237.883 0h0.461c0.693-0.234 19.205-2.544 22.448 30.546 0 0.693 2.544 47.439-0.461 84.694 0.461 0.234 1.157 0.693 1.619 1.157 3.008-37.028 0.693-83.307 0.461-86.082-2.082-37.721-34.016-35.868-54.843-39.337-17.82-3.008-35.868-4.626-53.917-5.322-51.139-2.082-103.206 1.39-153.884 12.035-12.726 2.315-23.833 9.95-31.698 22.448-7.638 12.035-7.638 25.919-7.406 40.494v8.562c-0.234 10.412-0.234 20.594-0.234 30.546-21.753 9.255-24.991 23.372-24.991 23.833l-0.234 1.39h27.073c2.315 46.047 37.489 49.753 37.95 49.753l141.853-1.619c1.619 0.234 18.511 1.619 38.644 1.619h6.249c-0.693-0.693-1.157-1.619-1.853-2.315-23.372 0-43.271-1.619-43.738-1.619zM705.455 596.622l-2.082 2.082c1.157 0 2.315-0.234 3.471-0.461-0.461-0.693-1.157-1.39-1.39-1.619z" fill="#62482D" p-id="3457"></path><path d="M770.014 570.937l1.157-2.082c-0.461-0.234-0.925 0-1.157 0.234 0.693-0.925 3.239-8.562 3.471-9.723 0.234-4.859-2.544-10.182-7.172-13.883-4.167-3.239-9.027-4.398-13.19-3.008-5.322 1.853-9.488 5.322-13.422 9.027l-0.925 0.693c-0.925 0.925-1.39 1.39-2.315 1.157s-1.157-0.925-1.619-1.853c-0.693-1.39-2.082-4.167-6.249-8.562-5.787-6.249-15.274-7.868-24.991-4.626-5.091 1.619-9.027 5.091-10.874 9.027-1.39 3.239-1.39 6.711 0 9.95 1.39 3.008 1.39 5.091 0.461 6.711-1.39 1.853-4.167 2.082-7.172 2.082h-2.544c-6.943 0-12.496 1.157-17.82 5.787-3.471 3.239-11.106 11.338-6.013 20.133 2.315 3.936 6.013 6.943 9.488 9.95 0.693 0.693 1.619 1.39 2.315 1.853 3.702 3.239 8.791 6.943 14.348 5.553 6.481-1.619 11.804-7.406 16.197-12.035 1.853-2.082 3.008-3.239 4.398-3.239 1.157 0.234 1.853 1.157 3.239 3.008 0.925 1.619 2.544 4.167 5.322 7.172 2.315 2.778 5.322 3.936 8.562 3.702 5.322-0.693 10.412-5.553 11.804-8.791 3.239-6.481 8.099-5.322 8.33-5.322h0.234l0.234 0.234s3.471 3.008 14.348 4.398c5.322 0.693 9.723-1.853 12.496-4.167 4.398-3.471 7.638-8.791 7.868-12.726-0.234-6.013-8.562-10.645-8.791-10.645z" fill="#C3F0F5" p-id="3458"></path><path d="M772.331 569.547c1.619-3.008 3.471-9.255 3.471-9.95 0.234-5.787-2.778-11.804-8.099-15.735-0.693-0.461-1.39-0.925-2.315-1.39-0.693-0.461-1.39-0.925-2.315-1.157-3.702-1.619-7.406-1.853-10.874-0.693-5.787 1.853-10.412 5.787-14.348 9.488l-0.925 0.693-0.234 0.234v-0.234c-0.693-1.39-2.315-4.398-6.711-9.027-6.481-6.943-16.66-8.791-27.535-5.322-5.553 1.853-10.182 5.787-12.265 10.412-1.619 3.702-1.619 7.868 0 11.804 0.925 2.082 1.157 3.702 0.693 4.398-0.693 0.925-3.239 1.157-5.322 0.925-8.562-0.234-15.735 0.693-21.985 6.481-8.099 7.406-10.412 15.965-6.481 22.908 1.157 1.853 2.544 3.471 3.936 5.091 0.693 0.925 1.619 1.619 2.315 2.315 1.157 1.157 2.544 2.082 3.702 3.239 0.693 0.693 1.619 1.39 2.315 1.853 3.471 3.008 8.099 6.481 13.422 6.481 0.925 0 2.082-0.234 3.008-0.461 7.172-1.853 12.957-8.099 17.354-12.726l0.234-0.234c0.693-0.925 1.853-2.082 2.082-2.082 0.234 0.234 0.693 0.925 1.39 1.853 0 0 0 0.234 0.234 0.234 1.157 1.619 2.544 4.167 5.322 7.406 2.778 3.471 6.481 4.859 10.412 4.398 6.249-0.693 11.804-6.249 13.652-9.95 2.082-4.167 4.859-4.167 5.553-4.167 1.157 0.925 5.322 3.471 15.274 4.626 6.249 0.693 11.106-2.082 14.348-4.626 4.859-3.936 8.33-9.723 8.791-14.348 0.461-6.481-5.553-11.106-8.099-12.726zM770.246 594.769c-2.778 2.315-7.172 4.859-12.496 4.167-10.874-1.39-14.348-4.398-14.348-4.398l-0.234-0.234h-0.234c-0.234 0-5.091-1.157-8.33 5.322-1.619 3.008-6.481 8.099-11.804 8.791-3.239 0.461-6.013-0.925-8.562-3.702-2.544-3.008-4.167-5.553-5.322-7.172-1.157-1.853-1.853-3.008-3.239-3.008-1.39 0-2.315 0.925-4.398 3.239-4.167 4.626-9.488 10.412-16.197 12.035-5.553 1.39-10.412-2.315-14.348-5.553-0.693-0.693-1.619-1.39-2.315-1.853-3.471-3.008-7.172-6.013-9.488-9.95-5.091-8.562 2.544-16.895 6.013-20.133 5.091-4.626 10.645-5.787 17.82-5.787h2.544c3.008 0 6.013 0 7.172-2.082 0.925-1.39 0.925-3.702-0.461-6.711-1.39-3.239-1.39-6.711 0-9.95 1.853-4.167 6.013-7.406 10.874-9.027 9.95-3.239 19.205-1.39 24.991 4.626 4.167 4.398 5.553 6.943 6.249 8.562 0.461 0.925 0.925 1.619 1.619 1.853 0.925 0.234 1.39-0.461 2.315-1.157l0.925-0.693c3.936-3.471 8.099-7.172 13.422-9.027 4.167-1.39 9.027-0.234 13.19 3.008 4.626 3.702 7.406 9.027 7.172 13.883 0 1.157-2.544 8.791-3.471 9.723 0.234-0.234 0.693-0.461 1.157-0.234l-1.157 2.082c0.234 0 8.562 4.626 8.099 11.106 0.461 3.471-2.778 8.791-7.172 12.265z" fill="#5A3D1D" p-id="3459"></path><path d="M507.602 536.454l7.172 2.082c-1.39 3.702-2.544 7.406-3.471 10.874l-7.172-2.082c1.39-3.936 2.544-7.638 3.471-10.874zM510.147 504.293l8.33 1.619c-0.234 0.925-0.693 1.853-0.925 2.778 9.027-1.619 18.511-2.544 28.464-3.008l1.157 7.406c-7.172 0.234-14.119 0.925-21.287 1.853 0 0.461 0.234 0.925 0.234 1.157 6.249-0.234 12.496-0.234 18.975 0.234l-0.925 6.943c-6.249-0.234-11.804-0.234-16.66-0.234 0.234 0.925 0.234 1.619 0.461 2.544l15.965-1.39 0.925 6.943c-5.091 0.693-10.412 1.157-15.504 1.39 0.234 0.925 0.461 2.082 0.693 3.008l-6.711 0.925 2.082 0.234c-1.39 2.315-2.082 4.398-2.082 5.787 0 0.461 0.234 0.693 0.461 0.925 0.234 0.234 0.925 0.461 1.853 0.461 1.157 0 3.008-0.693 5.787-1.853l-1.853-1.853 4.398-5.322c2.778 1.619 5.091 3.936 6.943 6.711l-4.859 5.091c-1.157-1.39-2.544-2.778-4.167-4.167l1.39 5.787c-3.239 1.39-6.013 2.315-8.33 2.315-3.008 0.234-5.322-0.234-6.711-1.157-1.619-0.925-2.315-2.315-2.778-4.167-0.234-3.702 0.461-6.943 2.082-9.95l3.471 0.693c-1.39-6.711-2.778-13.422-3.936-19.901-0.461 0-1.157 0.234-1.619 0.234-0.461 2.778-1.157 5.322-1.39 8.33l-8.33-1.619c0.925-6.481 2.315-12.726 4.398-18.742zM544.167 534.607c3.239 1.853 5.787 4.167 8.099 6.943l-4.859 5.091c-2.082-2.315-4.626-4.398-7.638-6.711l4.398-5.322zM566.379 507.297l8.791 2.315c-3.008 7.868-6.013 16.895-9.027 26.61l-8.791-2.544c2.778-9.95 5.787-18.742 9.027-26.381zM580.726 509.615l9.255 2.544c-3.936 6.013-6.249 10.412-7.638 13.422-1.157 2.778-1.619 4.859-1.39 6.013 0 2.315 2.544 3.239 7.172 3.239 1.157 0 2.315-0.234 3.471-0.693-0.693-2.082-1.619-4.167-2.315-6.481l7.638-3.239c1.619 5.787 3.936 11.338 6.943 16.197l-7.406 3.936c-0.461-0.693-0.925-1.39-1.157-2.315-2.778 0.925-5.553 1.619-8.33 1.619-5.553 0.234-9.723-0.925-12.035-3.239-2.082-2.082-3.239-4.626-3.239-7.868-0.234-3.702 2.778-11.572 9.027-23.141zM612.428 522.111l8.562 1.619c-1.39 3.936-2.544 8.099-3.239 12.726l-8.562-1.619c0.693-4.398 1.853-8.562 3.239-12.726zM628.86 506.836c0.925-2.544 1.853-4.859 2.778-7.406l8.562 2.082c-0.461 1.39-1.157 3.008-1.619 4.398 3.239 0.234 6.249 1.157 8.562 3.008 2.544 2.315 3.936 5.091 4.167 8.33v1.619c2.082 0.693 3.936 1.39 5.787 2.082l-2.544 9.255c-1.39-0.693-2.544-1.157-3.936-1.619 0 0.925-0.234 1.853-0.234 2.544-0.693 5.553-1.853 9.95-2.778 13.19l-9.255-1.39c1.39-4.859 2.544-9.488 3.008-13.883 0.461-3.936 0.693-7.406 0.693-9.723 0-1.619-0.693-2.778-1.619-3.471-1.157-0.925-2.778-1.39-4.398-1.157-3.008 9.723-6.013 19.901-9.027 30.778l-8.562-2.544c2.544-9.723 5.091-18.742 7.638-27.073-3.702 0.925-7.406 2.544-11.106 4.398l-3.239-8.33c1.853-0.925 4.859-2.082 9.255-3.471 2.082-0.461 4.859-1.157 7.868-1.619zM683.935 512.159c0.234 7.172-3.239 12.726-10.412 16.431l-5.091-5.553c2.315-1.157 4.398-2.778 5.553-4.859 1.157-1.853 1.853-3.471 1.619-5.322 0-2.544-1.853-3.702-5.322-3.471-3.008 0.234-4.398 0.925-4.398 2.778 0 1.39 0.234 2.544 0.234 3.008 0.234 1.39 0.925 2.544 2.082 3.702l-5.553 4.398c-3.008-1.853-4.398-5.322-4.626-10.412-0.234-3.702 1.157-6.481 3.702-8.562 2.082-1.619 4.859-2.544 8.33-2.544 3.471-0.234 6.481 0.461 8.791 2.082 3.471 1.853 5.091 4.626 5.091 8.33zM679.307 533.217l-2.315 7.172c-2.315-0.461-6.481-1.157-12.265-2.544l2.315-7.172c2.315 0.461 6.481 1.39 12.265 2.544z" fill="#62482D" p-id="3460"></path></svg>